<svg width="50" height="28" viewBox="0 0 50 28" fill="none" xmlns="http://www.w3.org/2000/svg">
<rect x="0.130844" y="0.605148" width="20.763" height="4.80339" fill="#094067"/>
<path d="M31.5078 0.605148H45.0658C47.7186 0.605148 49.8692 2.7557 49.8692 5.40854V5.40854H31.5078V0.605148Z" fill="#094067"/>
<path d="M31.5078 0.605148H45.0658C47.7186 0.605148 49.8692 2.7557 49.8692 5.40854V5.40854H31.5078V0.605148Z" fill="#094067"/>
<path d="M31.5078 22.5915H49.8692V22.5915C49.8692 25.2443 47.7186 27.3948 45.0658 27.3948H31.5078V22.5915Z" fill="#094067"/>
<rect x="36.3112" y="0.605148" width="26.7897" height="4.80339" transform="rotate(90 36.3112 0.605148)" fill="#094067"/>
<path d="M45.0658 0.605148C47.7186 0.605148 49.8692 2.7557 49.8692 5.40854L49.8692 22.5915C49.8692 25.2443 47.7186 27.3948 45.0658 27.3948V27.3948L45.0658 0.605148V0.605148Z" fill="#094067"/>
<rect x="0.130844" y="22.5915" width="20.763" height="4.80339" fill="#094067"/>
<rect x="0.130844" y="11.5981" width="12.086" height="4.80339" fill="#094067"/>
</svg>
